<svg width="200" height="60" xmlns="http://www.w3.org/2000/svg">
  <!-- G -->
  <path d="M40,15 C30,15 22,23 22,33 C22,43 30,51 40,51 C45,51 49,49 52,45 L45,40 C43,42 42,43 40,43 C35,43 31,39 31,33 C31,27 35,23 40,23 C42,23 43,24 45,26 L52,21 C49,17 45,15 40,15 Z" fill="rgb(78,70,220)"/>
  <!-- i -->
  <rect x="56" y="22" width="5" height="28" fill="rgb(78,70,220)"/>
  <circle cx="58.5" cy="15" r="3" fill="rgb(78,70,220)"/>
  <!-- l -->
  <rect x="65" y="10" width="5" height="40" fill="rgb(78,70,220)"/>
  <!-- b -->
  <path d="M75,10 L80,10 L80,50 L75,50 L75,45 C73,48 70,50 66,50 C60,50 55,44 55,36 C55,28 60,22 66,22 C70,22 73,24 75,27 L75,10 Z M68,43 C72,43 75,40 75,36 C75,32 72,29 68,29 C64,29 61,32 61,36 C61,40 64,43 68,43 Z" fill="rgb(78,70,220)"/>
  <!-- e -->
  <path d="M97,36 C97,44 92,50 85,50 C78,50 73,44 73,36 C73,28 78,22 85,22 C92,22 97,28 97,36 Z M79,36 C79,40 82,43 85,43 C88,43 91,40 91,36 C91,32 88,29 85,29 C82,29 79,32 79,36 Z" fill="rgb(78,70,220)"/>
  <!-- r -->
  <path d="M100,22 L105,22 L105,27 C107,24 110,22 114,22 L114,28 C113,28 112,28 111,28 C107,28 105,30 105,35 L105,50 L100,50 L100,22 Z" fill="rgb(78,70,220)"/>
  <!-- t -->
  <path d="M116,15 L121,15 L121,22 L128,22 L128,28 L121,28 L121,40 C121,42 122,43 124,43 L128,43 L128,50 L124,50 C119,50 116,47 116,42 L116,28 L112,28 L112,22 L116,22 L116,15 Z" fill="rgb(78,70,220)"/>
  <!-- Document icon -->
  <rect x="130" y="15" width="22" height="28" rx="2" fill="none" stroke="rgb(78,70,220)" stroke-width="2"/>
  <line x1="135" y1="23" x2="147" y2="23" stroke="rgb(78,70,220)" stroke-width="2"/>
  <line x1="135" y1="29" x2="147" y2="29" stroke="rgb(78,70,220)" stroke-width="2"/>
  <line x1="135" y1="35" x2="143" y2="35" stroke="rgb(78,70,220)" stroke-width="2"/>
</svg>
